<svg width="11" height="10" viewBox="0 0 11 10" fill="none" xmlns="http://www.w3.org/2000/svg">
<path d="M4.82144 0.593074C4.84151 0.552522 4.87252 0.518386 4.91096 0.49452C4.9494 0.470654 4.99375 0.458008 5.039 0.458008C5.08425 0.458008 5.12859 0.470654 5.16704 0.49452C5.20548 0.518386 5.23649 0.552522 5.25656 0.593074L6.31458 2.73613C6.38427 2.87719 6.48716 2.99922 6.6144 3.09176C6.74165 3.1843 6.88944 3.24458 7.04511 3.26743L9.41123 3.61369C9.45606 3.62019 9.49818 3.6391 9.53282 3.66829C9.56747 3.69748 9.59326 3.73578 9.60727 3.77886C9.62128 3.82194 9.62295 3.86808 9.61211 3.91206C9.60126 3.95605 9.57832 3.99612 9.54588 4.02774L7.83473 5.69401C7.72188 5.80398 7.63745 5.93972 7.5887 6.08956C7.53995 6.2394 7.52835 6.39884 7.55488 6.55416L7.95886 8.90837C7.96677 8.95318 7.96193 8.99931 7.94488 9.0415C7.92784 9.0837 7.89928 9.12025 7.86246 9.14699C7.82564 9.17373 7.78205 9.18959 7.73666 9.19275C7.69126 9.19591 7.64589 9.18624 7.60572 9.16486L5.4906 8.05279C5.35124 7.97961 5.19618 7.94138 5.03877 7.94138C4.88136 7.94138 4.7263 7.97961 4.58694 8.05279L2.47227 9.16486C2.43212 9.18611 2.38681 9.19567 2.34149 9.19245C2.29617 9.18923 2.25266 9.17336 2.21592 9.14664C2.17918 9.11991 2.15067 9.08342 2.13364 9.04129C2.11661 8.99917 2.11175 8.95312 2.1196 8.90837L2.52311 6.55462C2.54977 6.39923 2.53822 6.23969 2.48947 6.08975C2.44071 5.93982 2.35622 5.804 2.24326 5.69401L0.532115 4.0282C0.49941 3.99661 0.476234 3.95647 0.465227 3.91235C0.454221 3.86824 0.455826 3.82192 0.469861 3.77867C0.483895 3.73542 0.509794 3.69698 0.544608 3.66773C0.579422 3.63848 0.62175 3.6196 0.666772 3.61324L3.03243 3.26743C3.18827 3.24476 3.33627 3.18456 3.46369 3.09201C3.59111 2.99946 3.69413 2.87733 3.76388 2.73613L4.82144 0.593074Z" fill="#615FFF" stroke="#4F39F6" stroke-width="0.916033" stroke-linecap="round" stroke-linejoin="round"/>
</svg>
